<svg width="1200" height="1200" xmlns="http://www.w3.org/2000/svg" version="1.1" enable-background="new 0 0 1200 1200" xml:space="preserve">
 <g>
  <title>Layer 1</title>
  <rect fill="#323359" stroke="null" x="570.37072" y="128.13958" width="53.70307" height="192.59033" id="svg_5"/>
  <path fill="#ff0000" d="m1106.062,449.031c-42.864,-74.496 -118.52,-129.316 -202.661,-146.847c-2.049,-0.427 -4.108,-0.716 -6.161,-1.1c-21.871,-4.103 -43.905,-5.98 -66.059,-6.279c-58.029,-0.783 -116.816,8.385 -175.279,11.801c-5.59,0.326 -11.182,0.672 -16.766,0.879c-22.243,0.821 -44.48,0.553 -66.715,-0.224c-0.547,-0.019 -1.093,-0.036 -1.64,-0.056c-31.199,-1.126 -62.395,-3.241 -93.602,-4.88c-22.985,-1.206 -45.975,-2.15 -68.978,-2.214c-77.041,-0.216 -156.716,10.286 -222.589,50.239c-223.249,135.409 -131.68,466.446 -4.315,635.668c35.552,47.237 79.883,90.56 131.093,119.082c30.185,16.814 62.757,28.493 97.341,32.778c58.064,7.195 116.542,-6.907 175.043,-7.747c60.165,-0.864 120.494,12.305 180.19,4.751c113.415,-14.352 204.721,-100.708 270.201,-194.416c50.076,-71.661 90.664,-151.402 107.153,-237.256c16.487,-85.854 7.344,-178.404 -36.256,-254.179z" id="svg_4"/>
 </g>

</svg>